<svg width="696" height="115" viewBox="0 0 696 115" fill="none" xmlns="http://www.w3.org/2000/svg">
<g clip-path="url(#clip0_0_33)">
<path d="M162.747 11.8827C170.849 11.8827 177.851 13.4939 183.653 16.817C189.454 20.1401 193.856 24.873 196.857 30.9151C199.857 37.0578 201.358 44.2075 201.358 52.3643C201.358 60.521 200.558 63.9448 198.857 68.9798C197.257 73.9142 194.756 78.2443 191.455 81.8695C188.154 85.4947 184.153 88.3143 179.452 90.2277C174.65 92.141 169.249 93.148 163.047 93.148C156.845 93.148 151.444 92.141 146.642 90.127C141.841 88.113 137.74 85.2933 134.539 81.7688C131.338 78.1436 128.837 73.8135 127.237 68.7785C125.536 63.7434 124.736 58.2049 124.736 52.2636C124.736 46.3222 125.636 40.683 127.337 35.648C129.037 30.6129 131.538 26.2828 134.839 22.7583C138.14 19.2338 142.041 16.5149 146.742 14.6016C151.444 12.6883 156.745 11.782 162.747 11.782V11.8827ZM185.253 52.3643C185.253 46.6243 184.353 41.5893 182.452 37.3599C180.652 33.1305 177.951 29.908 174.55 27.7933C171.149 25.6786 167.148 24.5709 162.747 24.5709C158.345 24.5709 156.645 25.1751 153.944 26.3835C151.243 27.5919 148.943 29.3038 147.042 31.62C145.142 33.9361 143.541 36.8564 142.441 40.3809C141.341 43.9054 140.74 47.9334 140.74 52.3643C140.74 56.7951 141.341 60.9238 142.441 64.4483C143.541 68.0735 145.142 71.0946 147.142 73.4107C149.143 75.8275 151.544 77.5394 154.144 78.7478C156.745 79.9562 159.746 80.5604 162.847 80.5604C165.948 80.5604 170.649 79.5534 174.05 77.5394C177.451 75.5254 180.152 72.303 182.152 68.0735C184.153 63.8441 185.153 58.6077 185.153 52.3643H185.253Z" fill="#0ADDDD"/>
<path d="M225.465 41.7907V43.6033C228.065 40.1795 230.866 37.662 233.867 36.1515C236.868 34.5403 240.369 33.7347 244.37 33.7347C248.371 33.7347 251.672 34.5403 254.673 36.2522C257.674 37.9641 259.975 40.2802 261.475 43.4019C262.475 45.2145 263.075 47.1279 263.376 49.2426C263.676 51.3573 263.776 53.9755 263.776 57.1979V84.4877C263.776 87.4081 263.076 89.6235 261.775 91.134C260.475 92.6445 258.674 93.3494 256.574 93.3494C254.473 93.3494 252.672 92.5438 251.272 91.0333C249.872 89.5228 249.272 87.3074 249.272 84.387V60.0175C249.272 55.1839 248.571 51.458 247.271 48.9405C245.971 46.4229 243.27 45.1138 239.269 45.1138C235.267 45.1138 234.267 45.9194 232.167 47.4299C230.066 48.9405 228.466 51.1559 227.465 53.8748C226.765 56.0902 226.365 60.1182 226.365 66.1602V84.4877C226.365 87.4081 225.665 89.7242 224.264 91.134C222.864 92.6445 221.163 93.3494 218.963 93.3494C216.762 93.3494 215.162 92.5438 213.761 91.0333C212.361 89.5228 211.761 87.3074 211.761 84.387V42.0928C211.761 39.2732 212.361 37.2592 213.561 35.8494C214.762 34.4396 216.462 33.7347 218.563 33.7347C220.663 33.7347 220.963 34.0368 222.064 34.641C223.064 35.2452 223.964 36.1515 224.564 37.3599C225.165 38.5683 225.465 40.0788 225.465 41.7907Z" fill="#0ADDDD"/>
<path d="M328.895 75.1226C328.895 76.9352 328.395 78.8485 327.294 80.9632C326.194 83.0779 324.593 84.9912 322.293 86.9045C319.992 88.8179 317.291 90.3284 313.89 91.4361C310.489 92.5438 306.688 93.148 302.487 93.148C293.484 93.148 286.482 90.5298 281.381 85.1926C276.38 79.9562 273.779 72.8065 273.779 63.9448C273.779 55.0832 274.979 52.6664 277.28 48.0341C279.58 43.4019 282.881 39.8774 287.283 37.3599C291.684 34.8424 296.885 33.5333 302.987 33.5333C309.089 33.5333 310.189 34.1375 313.39 35.2452C316.491 36.3529 319.192 37.7627 321.392 39.5753C323.593 41.2872 325.294 43.2005 326.394 45.2145C327.594 47.2285 328.094 49.0411 328.094 50.7531C328.094 52.465 327.494 53.9755 326.194 55.1839C324.893 56.3923 323.293 56.9965 321.493 56.9965C319.692 56.9965 319.292 56.6944 318.492 56.0902C317.691 55.486 316.791 54.479 315.791 53.0692C313.99 50.3503 312.19 48.3362 310.189 46.9264C308.289 45.6173 305.788 44.9124 302.787 44.9124C298.486 44.9124 294.985 46.6243 292.384 49.9474C289.783 53.3713 288.483 57.9028 288.483 63.8441C288.483 69.7855 288.783 69.0806 289.483 71.3967C290.184 73.7128 291.184 75.6261 292.384 77.338C293.685 78.9492 295.185 80.1576 296.985 81.0639C298.786 81.8695 300.787 82.373 302.987 82.373C305.188 82.373 308.389 81.6681 310.489 80.359C312.59 79.0499 314.39 76.9352 315.991 74.1156C316.891 72.5044 317.791 71.1953 318.892 70.289C319.892 69.3827 321.192 68.8792 322.693 68.8792C324.193 68.8792 325.894 69.5841 327.094 70.8932C328.294 72.303 328.895 73.7128 328.895 75.2233V75.1226Z" fill="#0ADDDD"/>
<path d="M394.513 63.542C394.513 67.8721 393.813 71.9002 392.513 75.6261C391.112 79.352 389.212 82.4737 386.611 85.0919C384.01 87.7102 381.009 89.7242 377.408 91.134C373.807 92.5438 369.806 93.2487 365.405 93.2487C361.004 93.2487 357.002 92.5438 353.501 91.134C350 89.7242 346.9 87.6095 344.399 84.9912C341.798 82.373 339.898 79.1506 338.497 75.5254C337.197 71.9002 336.497 67.8721 336.497 63.4413C336.497 59.0105 337.197 54.9825 338.497 51.2566C339.798 47.5306 341.798 44.4089 344.299 41.7907C346.8 39.1725 349.9 37.1585 353.501 35.7487C357.103 34.3389 361.004 33.634 365.405 33.634C369.806 33.634 373.807 34.3389 377.408 35.7487C381.009 37.1585 384.11 39.1725 386.611 41.8914C389.212 44.5096 391.112 47.732 392.413 51.3573C393.713 54.9825 394.413 59.0105 394.413 63.4413L394.513 63.542ZM379.909 63.542C379.909 57.6007 378.609 52.8678 376.008 49.5447C373.407 46.2215 369.906 44.5096 365.505 44.5096C361.104 44.5096 360.203 45.2145 358.003 46.725C355.802 48.2355 354.202 50.451 353.001 53.2706C351.801 56.1909 351.201 59.514 351.201 63.4413C351.201 67.3686 351.801 70.5911 352.901 73.5114C354.102 76.331 355.702 78.5464 357.903 80.0569C360.003 81.5674 362.604 82.373 365.505 82.373C369.906 82.373 373.407 80.6611 376.008 77.338C378.609 74.0149 379.909 69.3827 379.909 63.4413V63.542Z" fill="#0ADDDD"/>
<path d="M457.932 44.4089V87.0052C457.932 91.8389 457.432 96.0683 456.431 99.5928C455.431 103.117 453.73 106.038 451.43 108.253C449.129 110.569 446.228 112.281 442.527 113.389C438.826 114.496 434.225 115.101 428.823 115.101C423.422 115.101 419.321 114.396 415.419 112.986C411.518 111.576 408.417 109.764 406.317 107.548C404.216 105.333 403.116 103.017 403.116 100.701C403.116 98.3844 403.716 97.4781 404.916 96.3704C406.117 95.2627 407.617 94.6585 409.318 94.6585C411.018 94.6585 413.319 95.5648 414.919 97.4781C415.72 98.4851 416.52 99.3914 417.32 100.398C418.12 101.405 419.121 102.211 420.121 102.916C421.121 103.621 422.321 104.124 423.822 104.426C425.222 104.729 426.923 104.93 428.723 104.93C432.524 104.93 435.425 104.426 437.526 103.319C439.626 102.312 441.027 100.801 441.927 98.8879C442.727 96.9746 443.227 94.9606 443.428 92.8459C443.528 90.7312 443.628 87.2066 443.728 82.373C441.527 85.4947 438.926 87.9115 435.925 89.5228C433.025 91.134 429.524 92.0403 425.422 92.0403C421.321 92.0403 416.32 90.8319 412.619 88.3143C409.018 85.7968 406.217 82.2723 404.216 77.8415C402.216 73.31 401.315 68.1742 401.315 62.2329C401.315 56.2916 401.916 53.8748 403.116 50.3502C404.316 46.8257 406.017 43.8047 408.217 41.3879C410.418 38.9711 412.919 37.1585 415.82 35.8494C418.72 34.5403 421.821 34.0368 425.322 34.0368C428.823 34.0368 433.025 34.8424 436.025 36.4536C439.026 38.0648 441.827 40.5823 444.428 43.9054V41.8914C444.428 39.3739 445.028 37.3599 446.328 35.9501C447.529 34.5403 449.129 33.8354 451.13 33.8354C453.931 33.8354 455.831 34.7417 456.731 36.5543C457.632 38.3669 458.132 41.0858 458.132 44.5096L457.932 44.4089ZM415.72 62.9378C415.72 68.8791 417.02 73.4107 419.621 76.4317C422.221 79.4527 425.522 80.9632 429.624 80.9632C433.725 80.9632 434.325 80.359 436.425 79.0499C438.526 77.7408 440.327 75.7268 441.627 73.1086C442.927 70.4903 443.628 67.2679 443.628 63.542C443.628 57.6007 442.327 52.8678 439.726 49.5446C437.126 46.2215 433.725 44.5096 429.423 44.5096C425.122 44.5096 421.921 46.1208 419.421 49.2425C416.92 52.465 415.62 56.9965 415.62 62.8371L415.72 62.9378Z" fill="#0ADDDD"/>
<path d="M508.946 84.9912V83.0779C507.246 85.2933 505.345 87.1059 503.445 88.6165C501.544 90.127 499.444 91.2347 497.143 91.9396C494.842 92.6445 492.241 93.0473 489.341 93.0473C486.44 93.0473 482.639 92.3424 479.838 90.8319C477.037 89.3214 474.937 87.3073 473.336 84.7898C471.536 81.6681 470.635 77.2373 470.635 71.3967V42.3949C470.635 39.4746 471.335 37.2592 472.636 35.8494C473.936 34.4396 475.737 33.634 477.837 33.634C479.938 33.634 481.838 34.3389 483.139 35.8494C484.439 37.3599 485.139 39.4746 485.139 42.3949V65.8581C485.139 69.282 485.44 72.1016 486.04 74.4177C486.64 76.7338 487.64 78.5464 489.141 79.8555C490.641 81.1646 492.642 81.7688 495.142 81.7688C497.643 81.7688 499.944 81.0639 502.044 79.5534C504.245 78.0429 505.745 76.1296 506.746 73.8135C507.546 71.6988 507.946 67.1672 507.946 60.2189V42.3949C507.946 39.4746 508.646 37.3599 509.947 35.8494C511.247 34.3389 513.047 33.634 515.248 33.634C517.449 33.634 519.149 34.3389 520.45 35.8494C521.75 37.2592 522.45 39.4746 522.45 42.3949V84.8905C522.45 87.7102 521.85 89.7242 520.55 91.134C519.249 92.5438 517.649 93.2487 515.648 93.2487C513.648 93.2487 512.047 92.5438 510.747 91.0333C509.446 89.5228 508.846 87.5088 508.846 84.9912H508.946Z" fill="#0ADDDD"/>
<path d="M572.364 84.9912C568.863 87.7102 565.462 89.8249 562.161 91.2347C558.86 92.6445 555.159 93.3494 551.058 93.3494C546.957 93.3494 544.056 92.6445 541.255 91.134C538.455 89.6235 536.254 87.6095 534.754 85.0919C533.253 82.5744 532.453 79.7548 532.453 76.8345C532.453 73.9142 533.753 69.3827 536.254 66.563C538.755 63.7434 542.256 61.8301 546.657 60.9238C547.557 60.7224 549.858 60.2189 553.559 59.514C557.26 58.8091 560.361 58.1042 562.962 57.3993C565.562 56.6944 568.363 55.9895 571.464 55.0832C571.264 51.2566 570.464 48.3362 569.163 46.6243C567.763 44.8117 564.962 43.9054 560.661 43.9054C556.36 43.9054 554.159 44.4089 552.359 45.4159C550.458 46.4229 548.858 48.0341 547.557 50.0482C546.257 52.1629 545.257 53.472 544.756 54.1769C544.156 54.8818 543.056 55.1839 541.255 55.1839C539.455 55.1839 538.255 54.6804 537.054 53.5727C535.854 52.5657 535.254 51.1559 535.254 49.5447C535.254 46.9264 536.154 44.5096 537.954 41.9921C539.755 39.5753 542.556 37.5613 546.457 35.9501C550.258 34.3389 555.059 33.634 560.761 33.634C566.463 33.634 572.164 34.4396 575.865 35.9501C579.566 37.4606 582.067 39.8774 583.668 43.2005C585.168 46.5236 585.968 50.8538 585.968 56.2916C585.968 61.7294 585.968 62.6357 585.968 65.0525C585.968 67.4693 585.968 70.0876 585.968 73.0079C585.968 75.7268 586.468 78.6471 587.369 81.6681C588.269 84.6891 588.769 86.6025 588.769 87.4081C588.769 88.9186 588.069 90.3284 586.668 91.5368C585.268 92.7452 583.668 93.3494 581.867 93.3494C580.067 93.3494 578.866 92.6445 577.466 91.2347C575.965 89.8249 574.465 87.8109 572.865 85.0919L572.364 84.9912ZM571.364 63.7434C569.263 64.549 566.163 65.3546 562.061 66.2609C557.96 67.1673 555.159 67.7715 553.659 68.1743C552.059 68.5771 550.558 69.3827 549.158 70.5911C547.757 71.7995 547.057 73.5114 547.057 75.6261C547.057 77.7408 547.857 79.7548 549.558 81.2653C551.258 82.7758 553.459 83.5814 556.16 83.5814C558.86 83.5814 561.661 82.9772 564.162 81.6681C566.563 80.359 568.363 78.7478 569.564 76.7338C570.864 74.5184 571.564 70.8932 571.564 65.7574V63.6427L571.364 63.7434Z" fill="#0ADDDD"/>
<path d="M613.376 72.1016V84.3871C613.376 87.3074 612.676 89.6235 611.276 91.0333C609.875 92.5438 608.175 93.2487 605.974 93.2487C603.773 93.2487 602.173 92.5438 600.773 91.0333C599.372 89.5228 598.772 87.3074 598.772 84.3871V43.6033C598.772 37.0578 601.173 33.7347 605.874 33.7347C610.575 33.7347 610.075 34.5403 611.076 36.0508C612.176 37.5613 612.776 39.8774 612.876 42.8984C614.577 39.8774 616.377 37.662 618.278 36.0508C620.078 34.5403 622.579 33.7347 625.58 33.7347C628.581 33.7347 631.581 34.5403 634.482 36.0508C637.383 37.5613 638.783 39.676 638.783 42.1935C638.783 44.711 638.183 45.4159 636.983 46.6243C635.783 47.8328 634.482 48.3363 632.982 48.3363C631.481 48.3363 631.181 48.0342 629.081 47.3293C627.08 46.6243 625.28 46.3222 623.679 46.3222C622.079 46.3222 619.778 46.9265 618.478 48.0342C617.077 49.1419 616.077 50.8538 615.377 53.0692C614.677 55.2846 614.076 57.9028 613.876 61.0245C613.576 64.0455 613.476 67.7715 613.476 72.2023L613.376 72.1016Z" fill="#0ADDDD"/>
<path d="M682.296 84.8905V83.4807C680.296 85.6962 678.395 87.6095 676.494 89.0193C674.594 90.4291 672.493 91.5368 670.293 92.2417C668.092 92.9466 665.691 93.3494 662.991 93.3494C660.29 93.3494 656.289 92.6445 653.288 91.134C650.287 89.6235 647.786 87.5088 645.586 84.7898C643.385 82.0709 641.784 78.7478 640.684 75.1226C639.584 71.3967 638.984 67.3687 638.984 63.0385C638.984 53.8748 641.184 46.725 645.686 41.5893C650.087 36.4536 655.989 33.9361 663.191 33.9361C670.393 33.9361 670.893 34.641 673.794 36.1515C676.694 37.5613 679.495 39.8774 682.196 42.7977V21.1471C682.196 18.1261 682.796 15.9107 683.997 14.2995C685.197 12.789 686.897 11.9834 689.098 11.9834C691.299 11.9834 692.999 12.6883 694.2 14.0981C695.4 15.5079 696 17.6226 696 20.3415V84.9912C696 87.8109 695.4 89.8249 694.1 91.2347C692.799 92.6445 691.199 93.3494 689.098 93.3494C686.997 93.3494 685.497 92.6445 684.197 91.134C682.896 89.7242 682.296 87.6095 682.296 84.8905ZM653.688 63.3406C653.688 67.268 654.288 70.6918 655.488 73.5114C656.689 76.331 658.389 78.4457 660.49 79.8555C662.59 81.2653 664.991 81.9702 667.492 81.9702C669.993 81.9702 672.393 81.2653 674.494 79.9562C676.594 78.6471 678.295 76.5324 679.595 73.8135C680.896 70.9939 681.496 67.5701 681.496 63.4413C681.496 59.3126 680.896 56.1909 679.595 53.3713C678.295 50.5517 676.594 48.437 674.494 46.9264C672.393 45.4159 669.993 44.711 667.392 44.711C664.791 44.711 662.39 45.5166 660.29 47.0272C658.189 48.5377 656.589 50.7531 655.388 53.5727C654.188 56.3923 653.688 59.7154 653.688 63.4413V63.3406Z" fill="#0ADDDD"/>
<path d="M52.8152 0H0V53.1699C0.200057 82.2723 23.6068 105.736 52.5151 105.736C81.4234 105.736 105.03 82.0709 105.03 52.8678C105.03 23.6646 81.7235 0.201401 52.8152 0Z" fill="#93F287"/>
<path d="M56.7164 35.4466L52.3151 39.8774L48.3139 35.8494C42.4122 29.9081 32.8095 29.9081 27.0078 35.8494C21.1061 41.7907 21.1061 51.458 27.0078 57.3993L31.3091 61.7294L52.3151 82.8765L78.1225 56.8958C84.0242 50.9545 84.0242 41.2872 78.1225 35.4466C72.2208 29.5053 62.618 29.5053 56.8164 35.4466H56.7164Z" fill="white"/>
</g>
<defs>
<clipPath id="clip0_0_33">
<rect width="696" height="115" fill="white"/>
</clipPath>
</defs>
</svg>
